HIERARCHY
ROOT Hips
{
	OFFSET 0.00000 0.00000 0.00000
	CHANNELS 6 Xposition Yposition Zposition Zrotation Yrotation Xrotation 
	JOINT LHipJoint
	{
		OFFSET 0 0 0
		CHANNELS 3 Zrotation Yrotation Xrotation
		JOINT LeftUpLeg
		{
			OFFSET 1.61328 -1.70571 0.84375
			CHANNELS 3 Zrotation Yrotation Xrotation
			JOINT LeftLeg
			{
				OFFSET 2.32400 -6.38513 0.00000
				CHANNELS 3 Zrotation Yrotation Xrotation
				JOINT LeftFoot
				{
					OFFSET 2.58843 -7.11166 0.00000
					CHANNELS 3 Zrotation Yrotation Xrotation
					JOINT LeftToeBase
					{
						OFFSET 0.17200 -0.47257 2.47970
						CHANNELS 3 Zrotation Yrotation Xrotation
						End Site
						{
							OFFSET 0.00000 -0.00000 1.26912
						}
					}
				}
			}
		}
	}
	JOINT RHipJoint
	{
		OFFSET 0 0 0
		CHANNELS 3 Zrotation Yrotation Xrotation
		JOINT RightUpLeg
		{
			OFFSET -1.49930 -1.70570 0.84375
			CHANNELS 3 Zrotation Yrotation Xrotation
			JOINT RightLeg
			{
				OFFSET -2.30458 -6.33178 0.00000
				CHANNELS 3 Zrotation Yrotation Xrotation
				JOINT RightFoot
				{
					OFFSET -2.62261 -7.20556 0.00000
					CHANNELS 3 Zrotation Yrotation Xrotation
					JOINT RightToeBase
					{
						OFFSET -0.18709 -0.51403 2.51340
						CHANNELS 3 Zrotation Yrotation Xrotation
						End Site
						{
							OFFSET -0.00000 -0.00000 1.28858
						}
					}
				}
			}
		}
	}
	JOINT LowerBack
	{
		OFFSET 0 0 0
		CHANNELS 3 Zrotation Yrotation Xrotation
		JOINT Spine
		{
			OFFSET -0.03798 2.19274 -0.19881
			CHANNELS 3 Zrotation Yrotation Xrotation
			JOINT Spine1
			{
				OFFSET -0.00024 2.19460 0.05248
				CHANNELS 3 Zrotation Yrotation Xrotation
				JOINT Neck
				{
					OFFSET 0 0 0
					CHANNELS 3 Zrotation Yrotation Xrotation
					JOINT Neck1
					{
						OFFSET -0.00746 1.82323 0.17286
						CHANNELS 3 Zrotation Yrotation Xrotation
						JOINT Head
						{
							OFFSET 0.11826 1.82121 -0.27841
							CHANNELS 3 Zrotation Yrotation Xrotation
							End Site
							{
								OFFSET 0.03496 1.85543 -0.11495
							}
						}
					}
				}
				JOINT LeftShoulder
				{
					OFFSET 0 0 0
					CHANNELS 3 Zrotation Yrotation Xrotation
					JOINT LeftArm
					{
						OFFSET 3.71926 0.78840 0.25473
						CHANNELS 3 Zrotation Yrotation Xrotation
						JOINT LeftForeArm
						{
							OFFSET 5.37587 -0.00000 0.00000
							CHANNELS 3 Zrotation Yrotation Xrotation
							JOINT LeftHand
							{
								OFFSET 3.35977 -0.00000 0.00000
								CHANNELS 3 Zrotation Yrotation Xrotation
								JOINT LeftFingerBase
								{
									OFFSET 0 0 0
									CHANNELS 3 Zrotation Yrotation Xrotation
									JOINT LeftHandIndex1
									{
										OFFSET 0.56186 -0.00000 0.00000
										CHANNELS 3 Zrotation Yrotation Xrotation
										End Site
										{
											OFFSET 0.45299 -0.00000 0.00000
										}
									}
								}
								JOINT LThumb
								{
									OFFSET 0 0 0
									CHANNELS 3 Zrotation Yrotation Xrotation
									End Site
									{
										OFFSET 0.45990 -0.00000 0.45990
									}
								}
							}
						}
					}
				}
				JOINT RightShoulder
				{
					OFFSET 0 0 0
					CHANNELS 3 Zrotation Yrotation Xrotation
					JOINT RightArm
					{
						OFFSET -3.65136 0.56074 0.01624
						CHANNELS 3 Zrotation Yrotation Xrotation
						JOINT RightForeArm
						{
							OFFSET -5.22819 -0.00000 0.00000
							CHANNELS 3 Zrotation Yrotation Xrotation
							JOINT RightHand
							{
								OFFSET -3.40764 -0.00000 0.00000
								CHANNELS 3 Zrotation Yrotation Xrotation
								JOINT RightFingerBase
								{
									OFFSET 0 0 0
									CHANNELS 3 Zrotation Yrotation Xrotation
									JOINT RightHandIndex1
									{
										OFFSET -0.58325 -0.00000 0.00000
										CHANNELS 3 Zrotation Yrotation Xrotation
										End Site
										{
											OFFSET -0.47024 -0.00000 0.00000
										}
									}
								}
								JOINT RThumb
								{
									OFFSET 0 0 0
									CHANNELS 3 Zrotation Yrotation Xrotation
									End Site
									{
										OFFSET -0.47742 -0.00000 0.47742
									}
								}
							}
						}
					}
				}
			}
		}
	}
}
MOTION
Frames: 9
Frame Time: .0083333
49.2159 16.7179 -6.7592 -135.0700 -85.5606 134.8920 0.0000 0.0000 0.0000 -20.3428 5.1190 -3.8402 1.2084 6.9739 19.6380 0.9493 3.6016 -20.0418 0.0003 -0.1088 -0.2989 0.0000 0.0000 0.0000 22.2334 2.9121 -10.6988 -3.4762 -11.4287 33.7396 -1.4455 3.7233 -21.8203 -0.4541 -4.3228 11.9867 -1.9114 0.7512 -4.1547 -0.7106 1.1263 5.6772 0.4437 0.4208 8.2702 -1.9045 -0.7584 -4.7958 1.6477 -1.6057 20.3733 0.7112 -0.9611 7.0292 0.0000 -0.0000 0.0000 -89.0180 -7.7782 26.0456 12.0078 -19.8163 -2.1049 -0.0000 0.0000 -5.7171 20.3833 18.7534 6.8121 -7.1250 0.0000 -0.0000 -7.7243 49.7332 -0.9062 0.0000 -0.0000 0.0000 90.3609 3.8421 23.8358 -13.2136 21.5994 -2.5314 0.0000 -0.0000 -2.1156 -23.1310 4.6942 -2.0022 7.1250 -0.0000 -0.0000 2.6462 -24.8772 1.2888
49.2187 16.7157 -6.7453 -135.6390 -85.4735 135.4340 0.0000 0.0000 0.0000 -20.3543 5.1869 -3.8710 1.2157 6.9941 19.6980 0.9543 3.5567 -20.0638 0.0002 -0.0951 -0.2613 0.0000 0.0000 0.0000 22.1747 2.8807 -10.9016 -3.5390 -11.5203 34.0554 -1.4302 3.8049 -21.6864 -0.4230 -4.1742 11.5673 -1.9506 0.7723 -4.0978 -0.7348 1.1562 5.7339 0.4428 0.4321 8.2975 -1.8908 -0.7027 -4.7434 1.6243 -1.5404 20.5415 0.7060 -0.9352 7.0730 0.0000 -0.0000 0.0000 -88.9645 -7.8161 26.1231 12.0184 -19.8323 -2.1085 -0.0000 0.0000 -5.7353 20.3776 18.8223 6.8339 -7.1250 0.0000 -0.0000 -7.7498 49.8038 -0.9227 0.0000 -0.0000 0.0000 90.3738 3.8808 23.8416 -13.1925 21.5686 -2.5236 0.0000 -0.0000 -2.1126 -23.1400 4.7028 -2.0067 7.1250 -0.0000 -0.0000 2.6395 -24.8675 1.2861
49.2224 16.7137 -6.7317 -136.1150 -85.4031 135.8930 0.0000 0.0000 0.0000 -20.3728 5.2476 -3.9178 1.2228 7.0138 19.7562 0.9580 3.5072 -20.0717 0.0002 -0.0858 -0.2357 0.0000 0.0000 0.0000 22.1077 2.8487 -11.1338 -3.6069 -11.6181 34.3941 -1.4138 3.8662 -21.5469 -0.3907 -4.0136 11.1149 -2.0061 0.7838 -4.0387 -0.7583 1.1745 5.7882 0.4504 0.4367 8.3209 -1.8697 -0.6442 -4.7123 1.5858 -1.4675 20.7028 0.6951 -0.9060 7.1180 0.0000 0.0000 0.0000 -88.9131 -7.8560 26.1847 12.0274 -19.8457 -2.1116 -0.0000 0.0000 -5.7348 20.3750 18.8806 6.8532 -7.1250 0.0000 -0.0000 -7.7695 49.8638 -0.9366 0.0000 0.0000 0.0000 90.3847 3.9273 23.8485 -13.1699 21.5356 -2.5153 0.0000 -0.0000 -2.1053 -23.1440 4.7095 -2.0100 7.1250 -0.0000 -0.0000 2.6366 -24.8601 1.2851
49.2264 16.7118 -6.7183 -136.5620 -85.3431 136.3320 0.0000 0.0000 0.0000 -20.3973 5.3050 -3.9727 1.2294 7.0319 19.8098 0.9611 3.4543 -20.0719 0.0001 -0.0753 -0.2068 0.0000 0.0000 0.0000 22.0331 2.8217 -11.3905 -3.6806 -11.7228 34.7582 -1.3964 3.9189 -21.4003 -0.3599 -3.8537 10.6655 -2.0690 0.7932 -3.9758 -0.7859 1.1906 5.8374 0.4574 0.4401 8.3366 -1.8452 -0.5892 -4.6788 1.5468 -1.3991 20.8491 0.6833 -0.8784 7.1579 0.0000 0.0000 0.0000 -88.8522 -7.8837 26.2590 12.0384 -19.8623 -2.1153 -0.0000 0.0000 -5.7379 20.3764 18.9380 6.8735 -7.1250 0.0000 -0.0000 -7.7852 49.9235 -0.9500 0.0000 0.0000 0.0000 90.4024 3.9716 23.8417 -13.1477 21.5033 -2.5072 0.0000 -0.0000 -2.0931 -23.1425 4.7179 -2.0134 7.1250 -0.0000 -0.0000 2.6377 -24.8511 1.2862
49.2302 16.7098 -6.7049 -137.1430 -85.2813 136.9020 0.0000 0.0000 0.0000 -20.4311 5.3730 -4.0241 1.2351 7.0476 19.8564 0.9642 3.4043 -20.0742 0.0001 -0.0633 -0.1739 0.0000 0.0000 0.0000 21.9473 2.8022 -11.6613 -3.7606 -11.8348 35.1502 -1.3771 3.9774 -21.2372 -0.3328 -3.7073 10.2545 -2.1383 0.8048 -3.9129 -0.8168 1.2101 5.8884 0.4649 0.4448 8.3541 -1.8217 -0.5385 -4.6390 1.5091 -1.3352 20.9707 0.6717 -0.8526 7.1890 0.0000 -0.0000 0.0000 -88.7867 -7.9034 26.3371 12.0512 -19.8814 -2.1197 -0.0000 0.0000 -5.7467 20.3799 18.9715 6.8864 -7.1250 0.0000 -0.0000 -7.7916 49.9588 -0.9576 0.0000 -0.0000 0.0000 90.4234 4.0192 23.8258 -13.1259 21.4715 -2.4992 0.0000 -0.0000 -2.0767 -23.1393 4.7272 -2.0170 7.1250 -0.0000 -0.0000 2.6401 -24.8411 1.2880
49.2333 16.7074 -6.6915 -137.9020 -85.2081 137.6420 0.0000 0.0000 0.0000 -20.4715 5.4539 -4.0612 1.2396 7.0601 19.8936 0.9677 3.3639 -20.0856 0.0001 -0.0494 -0.1357 0.0000 0.0000 0.0000 21.8530 2.7928 -11.9371 -3.8474 -11.9546 35.5715 -1.3555 4.0399 -21.0545 -0.3068 -3.5610 9.8448 -2.2086 0.8208 -3.8526 -0.8502 1.2358 5.9446 0.4710 0.4522 8.3786 -1.8003 -0.4904 -4.5945 1.4692 -1.2728 21.0682 0.6598 -0.8276 7.2113 0.0000 -0.0000 0.0000 -88.7177 -7.9192 26.4109 12.0632 -19.8993 -2.1238 -0.0000 0.0000 -5.7601 20.3855 18.9934 6.8961 -7.1250 0.0000 -0.0000 -7.7926 49.9824 -0.9623 0.0000 -0.0000 0.0000 90.4468 4.0678 23.8051 -13.1069 21.4436 -2.4922 0.0000 -0.0000 -2.0574 -23.1360 4.7383 -2.0214 7.1250 -0.0000 -0.0000 2.6426 -24.8292 1.2900
49.2355 16.7046 -6.6780 -138.8260 -85.1246 138.5350 0.0000 0.0000 0.0000 -20.5184 5.5542 -4.0802 1.2430 7.0694 19.9212 0.9719 3.3255 -20.1041 0.0000 -0.0329 -0.0904 0.0000 0.0000 0.0000 21.7493 2.7928 -12.2130 -3.9413 -12.0819 36.0222 -1.3316 4.1088 -20.8504 -0.2837 -3.4254 9.4656 -2.2797 0.8433 -3.7906 -0.8871 1.2702 6.0023 0.4747 0.4639 8.4037 -1.7815 -0.4488 -4.5352 1.4305 -1.2187 21.1474 0.6480 -0.8064 7.2253 -0.0000 0.0000 0.0000 -88.6437 -7.9209 26.4921 12.0749 -19.9169 -2.1277 -0.0000 0.0000 -5.7855 20.3911 19.0035 6.9016 -7.1250 0.0000 -0.0000 -7.7902 49.9938 -0.9642 -0.0000 0.0000 0.0000 90.4751 4.1065 23.7725 -13.0925 21.4226 -2.4870 0.0000 -0.0000 -2.0379 -23.1337 4.7602 -2.0305 7.1250 -0.0000 -0.0000 2.6444 -24.8055 1.2923
49.2357 16.7008 -6.6640 -140.0660 -85.0100 139.7160 0.0000 0.0000 0.0000 -20.5727 5.6847 -4.0578 1.2452 7.0755 19.9391 0.9779 3.3036 -20.1494 0.0000 -0.0130 -0.0356 0.0000 0.0000 0.0000 21.6359 2.8079 -12.4649 -4.0420 -12.2160 36.5005 -1.3045 4.2010 -20.6165 -0.2650 -3.3117 9.1477 -2.3452 0.8783 -3.7301 -0.9261 1.3208 6.0740 0.4749 0.4833 8.4446 -1.7629 -0.4060 -4.4756 1.3869 -1.1607 21.2067 0.6351 -0.7835 7.2327 0.0000 0.0000 0.0000 -88.5700 -7.9210 26.5678 12.0848 -19.9317 -2.1311 -0.0000 0.0000 -5.8178 20.3923 19.0145 6.9058 -7.1250 0.0000 -0.0000 -7.7923 50.0053 -0.9666 0.0000 0.0000 0.0000 90.5023 4.1435 23.7404 -13.0840 21.4101 -2.4839 0.0000 -0.0000 -2.0284 -23.1374 4.7958 -2.0460 7.1250 -0.0000 -0.0000 2.6418 -24.7668 1.2934
49.2346 16.6966 -6.6500 -141.3780 -84.8852 140.9530 0.0000 0.0000 0.0000 -20.6318 5.8265 -4.0131 1.2464 7.0787 19.9487 0.9846 3.2876 -20.2027 0.0000 0.0065 0.0179 0.0000 0.0000 0.0000 21.5153 2.8300 -12.7119 -4.1489 -12.3559 37.0030 -1.2749 4.2865 -20.3603 -0.2457 -3.1894 8.8066 -2.4091 0.9157 -3.6686 -0.9678 1.3745 6.1492 0.4715 0.5042 8.4889 -1.7418 -0.3587 -4.4204 1.3419 -1.0956 21.2583 0.6218 -0.7568 7.2383 0.0000 0.0000 0.0000 -88.4942 -7.9123 26.6331 12.0935 -19.9447 -2.1341 -0.0000 0.0000 -5.8516 20.3914 19.0283 6.9103 -7.1250 0.0000 -0.0000 -7.7972 50.0195 -0.9700 0.0000 0.0000 0.0000 90.5334 4.1739 23.7054 -13.0791 21.4030 -2.4821 0.0000 -0.0000 -2.0234 -23.1450 4.8443 -2.0674 7.1250 -0.0000 -0.0000 2.6363 -24.7139 1.2939
